<svg xmlns="http://www.w3.org/2000/svg" version="1.1" xmlns:xlink="http://www.w3.org/1999/xlink" width="512" height="512" x="0" y="0" viewBox="0 0 56 56" style="enable-background:new 0 0 512 512" xml:space="preserve" class=""><g><path d="M11 14h34v-2H11zM7 18h42v-2H7zM13 8h30v2H13z" fill="#0c816d" opacity="1" data-original="#000000" class=""></path><path d="M5 18v-3a1 1 0 0 1 1-1h3v-3a1 1 0 0 1 1-1h1V7a1 1 0 0 1 1-1h32a1 1 0 0 1 1 1v3h1a1 1 0 0 1 1 1v3h3a1 1 0 0 1 1 1v3h4.523l-7.2-18H7.677l-7.2 18zM35 28H21c-1.103 0-2 .897-2 2s.897 2 2 2h14c1.103 0 2-.897 2-2s-.897-2-2-2z" fill="#0c816d" opacity="1" data-original="#000000" class=""></path><path d="M6 20H0v36h56V20h-6zm29 14H21c-2.206 0-4-1.794-4-4s1.794-4 4-4h14c2.206 0 4 1.794 4 4s-1.795 4-4 4z" fill="#0c816d" opacity="1" data-original="#000000" class=""></path></g></svg>