<svg xmlns="http://www.w3.org/2000/svg" version="1.1" xmlns:xlink="http://www.w3.org/1999/xlink" width="512" height="512" x="0" y="0" viewBox="0 0 469.17 469.17" style="enable-background:new 0 0 512 512" xml:space="preserve" class=""><g><path d="M110.185 266.152H75.537c9.851 19.344 27.199 34 48.328 40.313-5.16-10.18-10.336-23.695-13.68-40.313zM126.529 266.152c4.524 20.342 11.993 34.945 17.727 43.766.793.023 1.531.234 2.328.234.797 0 1.535-.211 2.324-.234 5.754-8.84 13.215-23.438 17.73-43.766h-40.109zM223.745 210.152h-38.289c.667 6.336 1.128 12.926 1.128 20 0 7.078-.477 13.66-1.152 20h38.313c1.672-6.43 2.84-13.054 2.84-20s-1.168-13.57-2.84-20zM169.28 153.831c5.278 10.34 10.446 23.74 13.754 40.32h34.598c-9.856-19.351-27.212-34.011-48.352-40.32zM148.936 150.39c-.801-.023-1.547-.238-2.351-.238-.797 0-1.539.211-2.328.234-5.977 9.152-13.305 23.717-17.746 43.766h40.152c-4.423-19.981-11.723-34.551-17.727-43.762zM169.331 210.152h-45.488c-.731 6.294-1.258 12.855-1.258 20 0 7.141.535 13.703 1.274 20h45.457c.734-6.297 1.27-12.858 1.27-20-.001-7.145-.529-13.705-1.255-20zM75.538 194.151h34.61c3.312-16.587 8.484-30.003 13.742-40.32a79.86 79.86 0 0 0-48.352 40.32zM106.584 230.152c0-7.074.465-13.664 1.133-20H69.424c-1.672 6.43-2.84 13.054-2.84 20s1.168 13.57 2.84 20h38.317c-.68-6.34-1.157-12.922-1.157-20zM182.986 266.151c-3.335 16.618-8.507 30.124-13.675 40.313 21.125-6.317 38.469-20.97 48.32-40.313h-34.645z" fill="#0c816d" opacity="1" data-original="#000000" class=""></path><path d="M426.858 50.791 241.4 1.098c-17.07-4.574-34.617 5.557-39.191 22.627l-16.726 62.426h73.102c9.879 0 18.602 4.571 24.469 11.606l27.918 7.479 52.672-49.11 14.746 3.952-33.008 54.379c9.687 2.596 19.574 5.244 26.054 6.982l20.012-11.762 9.832 2.634-15.519 23.502 1.687 28.114-9.832-2.634-11.45-20.19c-6.481-1.738-16.367-4.386-26.054-6.982l1.398 63.6-14.746-3.952-21.062-68.867-15.117-4.05v192.435l16.481-62.692 15.453 4.142-31.934 121.491v29.925c0 17.673-14.328 32-32 32H203.39l111.66 29.919c17.07 4.574 34.617-5.556 39.191-22.627l51.793-193.287-15.496-4.036 4.156-15.453 15.481 4.032 39.313-146.717c4.573-17.071-5.56-34.618-22.63-39.193zM313.257 227.41l-15.453-4.141 4.156-15.453 15.453 4.141-4.156 15.453zm19.593-11.305 15.469 4.141-4.125 15.453-15.469-4.141 4.125-15.453zm-9.519 221.057-15.453-4.141 45.55-170.003 15.453 4.141-45.55 170.003zm51.753-193.182-15.453-4.141 4.156-15.453 15.453 4.141-4.156 15.453z" fill="#0c816d" opacity="1" data-original="#000000" class=""></path><path d="M258.584 102.152h-240v320h240c8.824 0 16-7.178 16-16v-288c0-8.822-7.176-16-16-16zm-32 288h-160v-16h160v16zm-80-64c-53.019 0-96-42.981-96-96s42.981-96 96-96 96 42.981 96 96-42.98 96-96 96z" fill="#0c816d" opacity="1" data-original="#000000" class=""></path></g></svg>