<svg xmlns="http://www.w3.org/2000/svg" version="1.1" xmlns:xlink="http://www.w3.org/1999/xlink" width="512" height="512" x="0" y="0" viewBox="0 0 16 16" style="enable-background:new 0 0 512 512" xml:space="preserve" class=""><g><path d="M12.5 7C14.43 7 16 5.43 16 3.5S14.43 0 12.5 0 9 1.57 9 3.5 10.57 7 12.5 7zm-1.604-3.604a.5.5 0 0 1 .707 0l.397.397 1.396-1.396a.5.5 0 0 1 .707.707l-1.75 1.75a.498.498 0 0 1-.707 0l-.75-.75a.502.502 0 0 1 0-.708z" fill="#0c816d" opacity="1" data-original="#000000" class=""></path><circle cx="6.5" cy="14.5" r="1.5" fill="#0c816d" opacity="1" data-original="#000000" class=""></circle><circle cx="11.5" cy="14.5" r="1.5" fill="#0c816d" opacity="1" data-original="#000000" class=""></circle><path d="M8.051 4H3.342l-.184-.829A1.487 1.487 0 0 0 1.697 2H.5a.5.5 0 0 0 0 1h1.197c.234 0 .434.16.484.389l1.656 7.438c.155.69.757 1.173 1.465 1.173h7.444c.666 0 1.259-.447 1.442-1.088l1.122-3.926A4.457 4.457 0 0 1 12.5 8c-2.31 0-4.197-1.756-4.449-4z" fill="#0c816d" opacity="1" data-original="#000000" class=""></path></g></svg>