<svg xmlns="http://www.w3.org/2000/svg" version="1.1" xmlns:xlink="http://www.w3.org/1999/xlink" width="512" height="512" x="0" y="0" viewBox="0 0 50 50" style="enable-background:new 0 0 512 512" xml:space="preserve" class=""><g><path d="M32.4 34.4v8.1l1.3-.7v-8.1zM29 36.4v8.1l2.3-1.4V35zM31.5 21.4l.1 8.1 1.3-.8v-8.1z" fill="#0c816d" opacity="1" data-original="#000000" class=""></path><path d="M24.8 36.7V49l10.7-6.2V30.5c-1.3.7-10.8 6.3-10.7 6.2zm9.7 5.8-8.1 4.7c-.1 0-.2.1-.3.1-.3 0-.5-.2-.5-.5v-9.3c0-.2.1-.4.3-.5l8.1-4.7c.2-.1.4-.1.5 0 .2.1.3.3.3.5v9.3c0 .2-.1.3-.3.4z" fill="#0c816d" opacity="1" data-original="#000000" class=""></path><path d="M28.7 32.6V20.3L7.6 8.1v12.3C34 35.7 26.7 31.5 28.7 32.6zM26.1 21c.3 0 .5.2.5.5v7c0 .3-.2.5-.5.5s-.5-.2-.5-.5v-7c0-.3.2-.5.5-.5zm-2.7-1.6c.3 0 .5.2.5.5v7c0 .3-.2.5-.5.5s-.5-.2-.5-.5v-7c0-.2.2-.5.5-.5zm-2.6-1.5c.3 0 .5.2.5.5v7c0 .3-.2.5-.5.5s-.5-.2-.5-.5v-7c0-.3.2-.5.5-.5zm-2.7-1.6c.3 0 .5.2.5.5v7c0 .3-.2.5-.5.5s-.5-.2-.5-.5v-7c0-.2.3-.5.5-.5zm-2.6-1.5c.3 0 .5.2.5.5v7c0 .3-.2.5-.5.5s-.5-.2-.5-.5v-7c0-.3.2-.5.5-.5zm-2.7-1.5c.3 0 .5.2.5.5v7c0 .3-.2.5-.5.5s-.5-.2-.5-.5v-7c0-.3.3-.5.5-.5zm-2.6-1.6c.3 0 .5.2.5.5v7c0 .3-.2.5-.5.5s-.5-.2-.5-.5v-7c0-.2.2-.5.5-.5zM29.2 19.4l10.7-6.2C37 11.6 18.7.9 18.9 1L8.1 7.2c4.7 2.7 15.3 8.9 21.1 12.2zM7.1 21.3l-3.9 2.3c28.8 16.7 18.9 11 21 12.2l3.9-2.2c-5.4-3.2-12.8-7.5-21-12.3zM26.6 37.8v8l1.4-.7-.1-8.1zM23.7 36.7c-.6-.3-1.4-.8-21-12.2v12.3l21 12.2V36.7zm-18.4-.6c-.3 0-.5-.2-.5-.5v-7c0-.3.2-.5.5-.5s.5.2.5.5v7c0 .3-.2.5-.5.5zm2.6 1.6c-.3 0-.5-.2-.5-.5v-7c0-.3.2-.5.5-.5s.5.2.5.5v7c.1.2-.2.5-.5.5zm2.7 1.5c-.3 0-.5-.2-.5-.5v-7c0-.3.2-.5.5-.5s.5.2.5.5v7c0 .3-.2.5-.5.5zm2.6 1.6c-.3 0-.5-.2-.5-.5v-7c0-.3.2-.5.5-.5s.5.2.5.5v7c.1.2-.2.5-.5.5zm2.7 1.5c-.3 0-.5-.2-.5-.5v-7c0-.3.2-.5.5-.5s.5.2.5.5v7c0 .3-.2.5-.5.5zm2.6 1.5c-.3 0-.5-.2-.5-.5v-7c0-.3.2-.5.5-.5s.5.2.5.5v7c.1.3-.2.5-.5.5zm2.7 1.6c-.3 0-.5-.2-.5-.5v-7c0-.3.2-.5.5-.5s.5.2.5.5v7c0 .2-.2.5-.5.5zM38.4 31v8l1.3-.7v-8.1zM44.1 27.6l.1 8.1 1.3-.7-.1-8.1z" fill="#0c816d" opacity="1" data-original="#000000" class=""></path><path d="M47.3 23.7c-1.9 1.1-2.2 1.3-10.7 6.2v12.3L47.3 36zm-1 12-8.1 4.7c-.1 0-.2.1-.3.1s-.2 0-.3-.1c-.2-.1-.3-.3-.3-.5v-9.3c0-.2.1-.4.3-.5l8.1-4.7c.2-.1.4-.1.5 0 .2.1.3.3.3.5v9.3c0 .3-.1.4-.2.5zM33.9 20v8.1l2.4-1.3-.1-8.1z" fill="#0c816d" opacity="1" data-original="#000000" class=""></path><path d="M40.8 29.6v8.1l2.3-1.4v-8.1zM40.4 14.1c-2.6 1.5-7.9 4.5-10.7 6.2v12.3c1.1-.6-4 2.3 10.7-6.2V14.1zm-1 12-8.1 4.7c-.1 0-.2.1-.3.1-.3 0-.5-.2-.5-.5v-9.3c0-.2.1-.4.3-.5l8.1-4.7c.2-.1.4-.1.5 0 .2.1.3.3.3.5v9.3c0 .2-.1.4-.3.4z" fill="#0c816d" opacity="1" data-original="#000000" class=""></path><path d="M37.3 18.1v8l1.3-.7v-8.1zM46.7 22.8l-5.2-3v6z" fill="#0c816d" opacity="1" data-original="#000000" class=""></path></g></svg>