<svg xmlns="http://www.w3.org/2000/svg" version="1.1" xmlns:xlink="http://www.w3.org/1999/xlink" width="512" height="512" x="0" y="0" viewBox="0 0 64 64" style="enable-background:new 0 0 512 512" xml:space="preserve" class=""><g><path d="M27.06 37.41a2.945 2.945 0 0 1 .82-1.53L46 17.76V8H6v44h40V34.24l-9.88 9.88a3.018 3.018 0 0 1-1.53.82l-5 1A3.108 3.108 0 0 1 29 46a3.002 3.002 0 0 1-2.94-3.59Z" fill="#0c816d" opacity="1" data-original="#000000" class=""></path><circle cx="26" cy="59" r="1" fill="#0c816d" opacity="1" data-original="#000000" class=""></circle><path d="M48 53a1.003 1.003 0 0 1-1 1H5a1.003 1.003 0 0 1-1-1V7a1.003 1.003 0 0 1 1-1h42a1.003 1.003 0 0 1 1 1v8.76l4-4V5a5.002 5.002 0 0 0-5-5H5a5.002 5.002 0 0 0-5 5v54a5.002 5.002 0 0 0 5 5h42a5.002 5.002 0 0 0 5-5V28.24l-4 4ZM24 2h4a1 1 0 0 1 0 2h-4a1 1 0 0 1 0-2Zm2 60a3 3 0 1 1 3-3 3.009 3.009 0 0 1-3 3Z" fill="#0c816d" opacity="1" data-original="#000000" class=""></path><path d="M62.878 9.121a3.833 3.833 0 0 0-5.414 0L29.293 37.293a.999.999 0 0 0-.274.51l-1 5A1 1 0 0 0 29 44a1.029 1.029 0 0 0 .196-.02l5-1a1.002 1.002 0 0 0 .511-.274l28.171-28.17a3.828 3.828 0 0 0 0-5.415Z" fill="#0c816d" opacity="1" data-original="#000000" class=""></path></g></svg>