<svg xmlns="http://www.w3.org/2000/svg" version="1.1" xmlns:xlink="http://www.w3.org/1999/xlink" width="512" height="512" x="0" y="0" viewBox="0 0 64 64" style="enable-background:new 0 0 512 512" xml:space="preserve" class=""><g><path d="m1.259 15.878 29.672 14.41V64a5.367 5.367 0 0 1-.983-.342L3.588 50.853A4.705 4.705 0 0 1 .96 46.62V17.482c0-.556.107-1.09.3-1.604zm9.213-5.964L3.59 13.249a4.889 4.889 0 0 0-1.155.812L32 28.427l8.295-4.04zm36.15 11.416 3.228-1.582-29.8-14.473-7.14 3.442L42.732 23.21zm-2.821 13.083 2.843-3.827a1.066 1.066 0 0 1 1.24-.363l3.335 1.261V21.48L43.8 25.071zm17.765-20.352a4.608 4.608 0 0 0-1.176-.812L34.052.465a4.762 4.762 0 0 0-4.104 0l-7.461 3.613 29.8 14.494zm1.175 1.796-9.385 4.575v11.544c0 .577-.277 1.133-.77 1.475-.47.342-1.09.406-1.645.192l-3.057-1.133-2.972 4.02c-.342.47-.876.726-1.432.726-.192 0-.385-.043-.577-.085-.727-.257-1.24-.94-1.24-1.71v-9.364l-8.594 4.19V64c.342-.086.663-.192.983-.342L60.39 50.853a4.687 4.687 0 0 0 2.65-4.233V17.482c0-.556-.106-1.112-.299-1.625z" fill="#0c816d" opacity="1" data-original="#000000"></path></g></svg>