<svg xmlns="http://www.w3.org/2000/svg" version="1.1" xmlns:xlink="http://www.w3.org/1999/xlink" width="512" height="512" x="0" y="0" viewBox="0 0 512 512" style="enable-background:new 0 0 512 512" xml:space="preserve" class=""><g><path fill-rule="evenodd" d="M20.839 449.811h470.322a4.848 4.848 0 0 1 4.839 4.838v34.011a4.849 4.849 0 0 1-4.839 4.839H20.839A4.849 4.849 0 0 1 16 488.66v-34.01a4.849 4.849 0 0 1 4.839-4.839zM73.412 213.37c-4.521 0-8.94-.436-13.219-1.267v221.708h53.923V260.559c0-5.33 4.347-9.677 9.677-9.677h88.396c5.33 0 9.677 4.347 9.677 9.677v173.252h229.939V212.103a69.189 69.189 0 0 1-13.219 1.267c-25.593 0-48.924-14.131-60.863-36.621-11.939 22.49-35.27 36.621-60.863 36.621-25.592 0-48.924-14.131-60.862-36.621-11.939 22.49-35.27 36.621-60.862 36.621-25.593 0-48.924-14.131-60.862-36.621-11.938 22.491-35.269 36.621-60.862 36.621zm133.699 149.851a8 8 0 0 1-16 0v-16.072a8 8 0 0 1 16 0zm81.162-112.339h104.095c5.33 0 9.677 4.347 9.677 9.677v59.139c0 5.33-4.347 9.677-9.677 9.677H288.273c-5.33 0-9.677-4.347-9.677-9.677v-59.139c0-5.33 4.347-9.677 9.677-9.677zM25.706 136.508h102.423l31.1-118.007h-70.75c-.867 0-1.376.259-1.784 1.043zm118.931 0 31.1-118.007H248v118.007zm119.363 0h103.363L336.263 18.5H264zm119.871 0L352.771 18.5h70.751c1.407 0 1.463.636 2.096 1.64l60.677 116.367H383.871zm106.976 16c-3.91 25.763-26.147 44.863-52.26 44.863-26.112 0-48.35-19.1-52.261-44.863zm-121.725 0c-3.91 25.763-26.147 44.863-52.26 44.863s-48.35-19.1-52.261-44.863zm-121.724 0c-3.91 25.762-26.148 44.863-52.261 44.863s-48.35-19.1-52.26-44.863zm-121.725 0c-3.91 25.763-26.148 44.863-52.261 44.863s-48.35-19.1-52.26-44.863z" clip-rule="evenodd" fill="#0c816d" opacity="1" data-original="#000000" class=""></path></g></svg>