<svg xmlns="http://www.w3.org/2000/svg" version="1.1" xmlns:xlink="http://www.w3.org/1999/xlink" width="512" height="512" x="0" y="0" viewBox="0 0 64 64" style="enable-background:new 0 0 512 512" xml:space="preserve" class=""><g><path d="m59.889 19.77-4.15-8.3a.997.997 0 0 0-.89-.56H9.15a.997.997 0 0 0-.89.56l-4.15 8.3a1.003 1.003 0 0 0 .89 1.45H35.12a.995.995 0 0 0 .84-.47c.716-1.143 3.696-5.901 4.35-6.95.68 1.09 3.599 5.761 4.34 6.95a1.011 1.011 0 0 0 .85.47h13.499a1.003 1.003 0 0 0 .89-1.45zM41.308 36.229c-5.83-9.23-20.259-5.15-20.309 5.86a11.025 11.025 0 0 0 11 11c8.58.12 13.929-9.79 9.309-16.86zm-4.6 3.9-5.34 5.33a.997.997 0 0 1-1.41 0l-2.67-2.67a.996.996 0 0 1 0-1.41 1.008 1.008 0 0 1 1.42 0l1.96 1.96 4.62-4.63a1.004 1.004 0 0 1 1.42 1.42z" fill="#0c816d" opacity="1" data-original="#000000" class=""></path><path d="m42.95 21.81-1.64-2.63v13.84a13.066 13.066 0 0 1 2.17 15.179c-.2.36-.41.71-.65 1.06h12.019a1.003 1.003 0 0 0 1-1V23.22h-10.35a3.021 3.021 0 0 1-2.55-1.41zM39.31 31.35V19.17l-1.65 2.64a3.004 3.004 0 0 1-2.54 1.41H8.15V48.26a1.003 1.003 0 0 0 1 1h12.02c-7.819-11.79 6.489-25.817 18.139-17.91z" fill="#0c816d" opacity="1" data-original="#000000" class=""></path></g></svg>